<svg viewBox="0 0 200 200" xmlns="http://www.w3.org/2000/svg">
  <defs>
    <linearGradient id="greenGrad" x1="0%" y1="0%" x2="100%" y2="100%">
      <stop offset="0%" style="stop-color:#0F5A3C;stop-opacity:1" />
      <stop offset="50%" style="stop-color:#1E7A5A;stop-opacity:1" />
      <stop offset="100%" style="stop-color:#3EF0C2;stop-opacity:0.8" />
    </linearGradient>
  </defs>
  <g>
    <!-- Grid cells with varying green intensities -->
    <rect x="0" y="0" width="25" height="25" fill="#0F5A3C" opacity="0.9"/>
    <rect x="25" y="0" width="25" height="25" fill="#1E7A5A" opacity="0.85"/>
    <rect x="50" y="0" width="25" height="25" fill="#2A9A6A" opacity="0.8"/>
    <rect x="75" y="0" width="25" height="25" fill="#3EF0C2" opacity="0.75"/>
    <rect x="100" y="0" width="25" height="25" fill="#2A9A6A" opacity="0.8"/>
    <rect x="125" y="0" width="25" height="25" fill="#1E7A5A" opacity="0.85"/>
    <rect x="150" y="0" width="25" height="25" fill="#0F5A3C" opacity="0.9"/>
    <rect x="175" y="0" width="25" height="25" fill="#1E7A5A" opacity="0.85"/>
    
    <rect x="0" y="25" width="25" height="25" fill="#1E7A5A" opacity="0.85"/>
    <rect x="25" y="25" width="25" height="25" fill="#2A9A6A" opacity="0.8"/>
    <rect x="50" y="25" width="25" height="25" fill="#3EF0C2" opacity="0.75"/>
    <rect x="75" y="25" width="25" height="25" fill="#4AFFD4" opacity="0.7"/>
    <rect x="100" y="25" width="25" height="25" fill="#3EF0C2" opacity="0.75"/>
    <rect x="125" y="25" width="25" height="25" fill="#2A9A6A" opacity="0.8"/>
    <rect x="150" y="25" width="25" height="25" fill="#1E7A5A" opacity="0.85"/>
    <rect x="175" y="25" width="25" height="25" fill="#2A9A6A" opacity="0.8"/>
    
    <rect x="0" y="50" width="25" height="25" fill="#2A9A6A" opacity="0.8"/>
    <rect x="25" y="50" width="25" height="25" fill="#3EF0C2" opacity="0.75"/>
    <rect x="50" y="50" width="25" height="25" fill="#4AFFD4" opacity="0.7"/>
    <rect x="75" y="50" width="25" height="25" fill="#3EF0C2" opacity="0.75"/>
    <rect x="100" y="50" width="25" height="25" fill="#2A9A6A" opacity="0.8"/>
    <rect x="125" y="50" width="25" height="25" fill="#1E7A5A" opacity="0.85"/>
    <rect x="150" y="50" width="25" height="25" fill="#2A9A6A" opacity="0.8"/>
    <rect x="175" y="50" width="25" height="25" fill="#3EF0C2" opacity="0.75"/>
    
    <rect x="0" y="75" width="25" height="25" fill="#3EF0C2" opacity="0.75"/>
    <rect x="25" y="75" width="25" height="25" fill="#4AFFD4" opacity="0.7"/>
    <rect x="50" y="75" width="25" height="25" fill="#3EF0C2" opacity="0.75"/>
    <rect x="75" y="75" width="25" height="25" fill="#2A9A6A" opacity="0.8"/>
    <rect x="100" y="75" width="25" height="25" fill="#1E7A5A" opacity="0.85"/>
    <rect x="125" y="75" width="25" height="25" fill="#2A9A6A" opacity="0.8"/>
    <rect x="150" y="75" width="25" height="25" fill="#3EF0C2" opacity="0.75"/>
    <rect x="175" y="75" width="25" height="25" fill="#4AFFD4" opacity="0.7"/>
    
    <!-- Repeat pattern for remaining rows -->
    <use href="#row1" transform="translate(0, 100)"/>
    <use href="#row2" transform="translate(0, 125)"/>
    <use href="#row3" transform="translate(0, 150)"/>
    <use href="#row4" transform="translate(0, 175)"/>
  </g>
  <!-- Define reusable rows -->
  <g id="row1" opacity="0.8">
    <rect x="0" y="0" width="25" height="25" fill="#1E7A5A"/>
    <rect x="25" y="0" width="25" height="25" fill="#2A9A6A"/>
    <rect x="50" y="0" width="25" height="25" fill="#3EF0C2"/>
    <rect x="75" y="0" width="25" height="25" fill="#2A9A6A"/>
    <rect x="100" y="0" width="25" height="25" fill="#1E7A5A"/>
    <rect x="125" y="0" width="25" height="25" fill="#2A9A6A"/>
    <rect x="150" y="0" width="25" height="25" fill="#3EF0C2"/>
    <rect x="175" y="0" width="25" height="25" fill="#2A9A6A"/>
  </g>
  <g id="row2" opacity="0.75">
    <rect x="0" y="0" width="25" height="25" fill="#2A9A6A"/>
    <rect x="25" y="0" width="25" height="25" fill="#3EF0C2"/>
    <rect x="50" y="0" width="25" height="25" fill="#2A9A6A"/>
    <rect x="75" y="0" width="25" height="25" fill="#1E7A5A"/>
    <rect x="100" y="0" width="25" height="25" fill="#2A9A6A"/>
    <rect x="125" y="0" width="25" height="25" fill="#3EF0C2"/>
    <rect x="150" y="0" width="25" height="25" fill="#4AFFD4"/>
    <rect x="175" y="0" width="25" height="25" fill="#3EF0C2"/>
  </g>
  <g id="row3" opacity="0.7">
    <rect x="0" y="0" width="25" height="25" fill="#3EF0C2"/>
    <rect x="25" y="0" width="25" height="25" fill="#2A9A6A"/>
    <rect x="50" y="0" width="25" height="25" fill="#1E7A5A"/>
    <rect x="75" y="0" width="25" height="25" fill="#2A9A6A"/>
    <rect x="100" y="0" width="25" height="25" fill="#3EF0C2"/>
    <rect x="125" y="0" width="25" height="25" fill="#2A9A6A"/>
    <rect x="150" y="0" width="25" height="25" fill="#1E7A5A"/>
    <rect x="175" y="0" width="25" height="25" fill="#2A9A6A"/>
  </g>
  <g id="row4" opacity="0.65">
    <rect x="0" y="0" width="25" height="25" fill="#2A9A6A"/>
    <rect x="25" y="0" width="25" height="25" fill="#1E7A5A"/>
    <rect x="50" y="0" width="25" height="25" fill="#2A9A6A"/>
    <rect x="75" y="0" width="25" height="25" fill="#3EF0C2"/>
    <rect x="100" y="0" width="25" height="25" fill="#2A9A6A"/>
    <rect x="125" y="0" width="25" height="25" fill="#1E7A5A"/>
    <rect x="150" y="0" width="25" height="25" fill="#2A9A6A"/>
    <rect x="175" y="0" width="25" height="25" fill="#3EF0C2"/>
  </g>
</svg>


